<svg width="100" height="96" viewBox="0 0 100 96" fill="none" xmlns="http://www.w3.org/2000/svg">
<path d="M99.5599 88.85L87.4099 62.63C86.6499 60.99 85.0499 59.97 83.2399 59.97H51.5599V47.75C51.5599 46.89 50.8599 46.19 49.9999 46.19C49.1399 46.19 48.4399 46.89 48.4399 47.75V59.97H16.7699C14.9599 59.97 13.3599 60.99 12.5999 62.64L0.439901 88.85C-0.230099 90.3 -0.120099 91.91 0.739901 93.26C1.5999 94.61 3.0099 95.39 4.6099 95.39H95.3899C96.9899 95.39 98.3999 94.61 99.2599 93.27C100.13 91.91 100.24 90.3 99.5599 88.85ZM96.6299 91.58C96.3399 92.03 95.9199 92.26 95.3899 92.26H4.6099C4.0799 92.26 3.6599 92.03 3.3699 91.57C3.0799 91.12 3.0499 90.64 3.2699 90.16L15.4299 63.95C15.6799 63.41 16.1699 63.09 16.7699 63.09H48.4399V68.44L44.0399 64.04C43.4299 63.43 42.4399 63.43 41.8299 64.04C41.2199 64.65 41.2199 65.64 41.8299 66.25L48.8899 73.31C49.1899 73.61 49.5899 73.77 49.9899 73.77C50.3899 73.77 50.7899 73.62 51.0899 73.31L58.1599 66.25C58.7699 65.64 58.7699 64.65 58.1599 64.04C57.5499 63.43 56.5599 63.43 55.9499 64.04L51.5399 68.44V63.09H83.2099C83.8099 63.09 84.2999 63.4 84.5499 63.95L96.6999 90.17C96.9499 90.65 96.9199 91.12 96.6299 91.58ZM49.9999 43.84C61.9199 43.84 71.6099 34.14 71.6099 22.23C71.6099 10.32 61.9199 0.609985 49.9999 0.609985C38.0899 0.609985 28.3899 10.31 28.3899 22.22C28.3899 34.13 38.0799 43.84 49.9999 43.84ZM49.9999 3.73999C60.1999 3.73999 68.4899 12.04 68.4899 22.23C68.4899 32.42 60.1899 40.72 49.9999 40.72C39.8099 40.72 31.5099 32.42 31.5099 22.23C31.5099 12.04 39.7999 3.73999 49.9999 3.73999ZM43.5699 26.72C43.2399 25.92 43.6099 25.01 44.4099 24.68C45.2099 24.35 46.1199 24.72 46.4499 25.52C47.1799 27.26 48.3599 27.95 49.2299 28.21C50.3499 28.55 51.5899 28.41 52.4799 27.83C53.0199 27.48 53.3699 26.92 53.4299 26.33C53.4699 25.96 53.3999 25.42 52.8599 24.9C52.4199 24.48 51.3799 24.23 50.3599 23.99C48.7199 23.6 46.8599 23.16 45.4699 21.74C44.2999 20.54 43.8299 18.74 44.2399 17.04C44.6599 15.29 45.9099 13.95 47.6699 13.35C47.9199 13.27 48.1799 13.19 48.4399 13.14V11.16C48.4399 10.3 49.1399 9.59999 49.9999 9.59999C50.8599 9.59999 51.5599 10.3 51.5599 11.16V13.08C52.2899 13.21 52.9799 13.45 53.5899 13.78C54.9699 14.54 55.8999 15.74 56.2699 17.24C56.4799 18.08 55.9599 18.92 55.1299 19.13C54.2899 19.34 53.4499 18.82 53.2399 17.99C53.0799 17.34 52.6999 16.86 52.0899 16.52C51.1699 16.01 49.7899 15.93 48.6699 16.31C47.6799 16.64 47.3699 17.37 47.2799 17.77C47.1199 18.43 47.2899 19.13 47.7099 19.56C48.4699 20.34 49.7299 20.64 51.0799 20.95C52.5099 21.29 53.9799 21.64 55.0399 22.66C56.1499 23.74 56.6799 25.15 56.5399 26.63C56.3899 28.15 55.5099 29.58 54.1899 30.44C53.4099 30.95 52.5099 31.28 51.5699 31.43V33.3C51.5699 34.16 50.8699 34.86 50.0099 34.86C49.1499 34.86 48.4499 34.16 48.4499 33.3V31.23C48.4099 31.22 48.3699 31.21 48.3299 31.2C46.1799 30.54 44.4999 28.95 43.5699 26.72ZM71.2799 77.68C71.2799 78.54 70.5799 79.24 69.7199 79.24H30.2799C29.4199 79.24 28.7199 78.54 28.7199 77.68C28.7199 76.82 29.4199 76.12 30.2799 76.12H69.7199C70.5799 76.12 71.2799 76.82 71.2799 77.68Z" fill="black"/>
</svg>
