<svg width="91" height="90" viewBox="0 0 91 90" fill="none" xmlns="http://www.w3.org/2000/svg">
<path d="M38.4 68.3V66.6C38.4 66.2 38.1 65.8 37.7 65.7C35.5 65.3 33.7 64.5 32.2 63.1C31.2 62.1 30.5 60.8 30.1 59.3C29.7 57.7 30.9 56.2 32.5 56.2H32.6C33.8 56.2 34.8 57 35 58.1C35.2 59.1 35.6 59.8 36.3 60.4C37.3 61.3 38.5 61.7 40 61.7C41.6 61.7 42.8 61.3 43.6 60.6C44.5 59.9 44.9 58.8 44.9 57.5C44.9 56.3 44.5 55.3 43.7 54.5C42.9 53.7 41.6 53 39.8 52.4C36.8 51.4 34.6 50.2 33.1 48.8C31.6 47.4 30.9 45.4 30.9 43C30.9 40.7 31.6 38.8 33 37.3C34.3 36 36 35.1 38.1 34.7C38.5 34.6 38.8 34.3 38.8 33.8V31.6C38.8 30.7 39.5 29.9 40.5 29.9H40.6C41.5 29.9 42.3 30.6 42.3 31.6V33.9C42.3 34.3 42.6 34.7 43 34.7C45.1 35.1 46.7 36.1 48 37.6C48.8 38.6 49.4 39.9 49.7 41.3C50 42.8 48.8 44.3 47.2 44.3H47C45.8 44.3 44.8 43.5 44.5 42.3C44.3 41.4 44 40.7 43.5 40.1C42.7 39.1 41.6 38.5 40.3 38.5C38.9 38.5 37.8 38.9 37.1 39.6C36.4 40.4 36 41.4 36 42.7C36 43.9 36.4 44.9 37.1 45.6C37.9 46.4 39.2 47.1 41.2 47.8C44.2 48.9 46.4 50.1 47.8 51.5C49.3 52.9 50 54.8 50 57.3C50 59.8 49.3 61.7 47.8 63.1C46.5 64.4 44.7 65.2 42.5 65.6C42.1 65.7 41.8 66 41.8 66.5V68.2C41.8 69.1 41.1 69.9 40.1 69.9C39.1 70 38.4 69.3 38.4 68.3ZM90.2 14.5C89.3 13 86.4 9.5 83.6 6.5C77.5 0 75.8 0 75 0C74.2 0 72.5 -4.76837e-07 66.4 6.4C63.6 9.4 60.7 12.9 59.8 14.4C59.2 15.3 59.5 16.6 60.5 17.1C61.5 17.6 62.7 17.4 63.2 16.4C64.5 14.3 69.7 8.3 73 5.4V51.3C73 55.9 72.1 60.3 70.4 64.5C68.7 68.7 66.1 72.5 62.9 75.7C56.4 82.4 47.7 86 38.5 86C19.5 86 4 70.5 4 51.5C4 32.5 19.5 17 38.5 17H48C49.1 17 50 16.1 50 15C50 13.9 49.1 13 48 13H38.5C17.3 13 0 30.3 0 51.5C0 72.7 17.3 90 38.5 90C48.8 90 58.5 86 65.7 78.7C69.3 75.1 72.1 70.9 74.1 66.2C76 61.6 77 56.6 77 51.5V5.6C80.2 8.5 85.5 14.4 86.8 16.6C87.2 17.2 87.8 17.6 88.5 17.6C88.9 17.6 89.2 17.5 89.5 17.3C90.5 16.6 90.8 15.4 90.2 14.5Z" fill="black"/>
</svg>
