<svg width="45" height="18" viewBox="0 0 45 18" fill="none" xmlns="http://www.w3.org/2000/svg">
<path d="M1.28948 7.85584H3.09732L4.33218 6.76422H5.6362L6.47096 7.85584L8.84684 8.04354L9.60752 6.76422L10.5065 7.80644H11.6475L12.7441 6.76422L13.075 7.40141L13.9295 7.85584L21.6746 8.04354L21.9117 6.09739H23.0527V7.76199L26.7919 7.80644L27.3994 7.38659L30.4569 8.04354L31.8696 7.07046L33.4898 6.71482L33.9491 7.85584L37.0857 7.6632L37.308 6.28509L39.1998 8.04354H40.8693V2.01246H39.1998L38.6861 3.43996L37.0857 1.81982L34.9716 2.01246L34.7395 3.43996L33.223 1.81982L28.5009 2.15571L27.3895 2.5805L26.7919 1.81982L25.0285 2.05692L23.5763 2.01246L18.301 2.05692L12.507 1.81982L11.5537 4.00306L10.0768 1.81982L7.32549 2.15571L7.27609 3.01023L5.85353 1.81982H3.71475L1.28948 7.85584Z" fill="white"/>
<path d="M10.6517 16.1707H15.9735L17.4128 15.3561L18.7292 16.3608C18.7292 16.3608 21.2849 16.1232 21.3614 16.1707C21.4375 16.2181 21.7704 14.555 21.7704 14.555L24.1463 14.2699L24.535 16.1232L26.1922 16.1707L26.7919 14.4601L27.8998 14.555L28.5029 16.3603L38.3527 16.1227L43.4843 16.0279L44.2919 14.7925L43.8562 13.0993V10.516L18.6344 10.231L17.0666 11.3364L15.7364 10.231L10.6522 10.4211V16.1707H10.6517Z" fill="white"/>
<path d="M4.08521 5.20332H5.6362L4.8607 3.22754L4.08521 5.20332Z" fill="#306FC5"/>
<path d="M12.3341 11.832V12.7458H14.9421V13.7337H12.3341V14.7908H15.2286L16.5672 13.3089L15.2978 11.832H12.3341Z" fill="#306FC5"/>
<path d="M32.7143 3.22754L31.8696 5.20332H33.4898L32.7143 3.22754Z" fill="#306FC5"/>
<path d="M19.8816 15.3542V11.3384L18.049 13.3092L19.8816 15.3542Z" fill="#306FC5"/>
<path d="M23.3362 12.4648C23.2656 12.0415 22.9836 11.8301 22.5602 11.8301H21.0799V13.0995H22.6314C23.0537 13.0995 23.3362 12.8881 23.3362 12.4648Z" fill="#306FC5"/>
<path d="M28.2717 12.9589C28.413 12.8883 28.4836 12.6764 28.4836 12.4655C28.5543 12.1834 28.413 12.0421 28.2717 11.972C28.131 11.9014 27.9191 11.9014 27.7081 11.9014H26.2974V13.03H27.7081C27.9191 13.0295 28.131 13.0295 28.2717 12.9589Z" fill="#306FC5"/>
<path d="M38.4263 1.39355V2.23968L38.0034 1.39355H34.6896V2.23968L34.2663 1.39355H29.7531C28.9776 1.39355 28.3424 1.53482 27.7788 1.81687V1.39355H24.6057V1.46419V1.81687C24.253 1.53482 23.8302 1.39355 23.2661 1.39355H11.9123L11.1363 3.15645L10.3608 1.39355H7.8224H6.76437V2.23968L6.41169 1.39355H6.34106H3.30922L1.89851 4.70793L0.276889 8.30434L0.247252 8.37498H0.276889H3.8733H3.91825L3.94394 8.30434L4.36725 7.24681H5.28401L5.70732 8.37498H9.7967V8.30434V7.52885L10.1494 8.37498H12.1943L12.5465 7.52885V8.30434V8.37498H14.1686H22.2782H22.3488V6.54145H22.4901C22.6309 6.54145 22.6309 6.54145 22.6309 6.75286V8.30434H27.7081V7.88103C28.1315 8.09293 28.7657 8.30434 29.6118 8.30434H31.7274L32.1507 7.17617H33.1376L33.5609 8.30434H37.6508V7.59948V7.24681L38.2855 8.30434H38.4263H38.4969H41.5999V1.39355H38.4263ZM14.5213 7.31744H13.8159H13.3931V6.89462V3.43898L13.3225 3.6005V3.59853L11.6821 7.31744H11.6302H11.2528H10.6428L8.95057 3.43898V7.31744H6.55296L6.05951 6.2599H3.6619L3.16795 7.31744H1.92815L4.01408 2.38095H5.77697L7.75127 7.10554V2.38095H8.17409H9.61937L9.65247 2.45159H9.65493L10.5445 4.38785L11.1832 5.83857L11.2059 5.76546L12.6161 2.38095H14.5203L14.5213 7.31744ZM19.3871 3.43898H16.6369V4.35574H19.3165V5.34314H16.6369V6.33054H19.3871V7.38807H15.438V2.38095H19.3871V3.43898ZM24.417 5.25719C24.419 5.25868 24.4209 5.26016 24.4234 5.26164C24.4501 5.2898 24.4728 5.31795 24.4926 5.34512C24.6274 5.52195 24.7371 5.78572 24.7425 6.17198C24.743 6.1789 24.743 6.18532 24.7435 6.19174C24.7435 6.19569 24.744 6.19915 24.744 6.2031C24.744 6.20557 24.744 6.20705 24.744 6.20903C24.7455 6.24805 24.7464 6.28756 24.7464 6.33054V7.31793H23.6889V6.75335C23.6889 6.47131 23.6889 6.048 23.477 5.76596C23.4103 5.69928 23.3431 5.65531 23.2695 5.6242C23.1638 5.55554 22.9638 5.55455 22.6314 5.55455H21.3614V7.31744H20.1631V2.38095H22.8428C23.477 2.38095 23.9003 2.38095 24.253 2.59236C24.5988 2.79982 24.8072 3.1441 24.8151 3.68892C24.7988 4.43922 24.3172 4.85117 23.971 4.98997C23.971 4.98997 24.2061 5.03739 24.417 5.25719ZM26.7914 7.31744H25.5926V2.38095H26.7914V7.31744ZM40.5423 7.31744H38.9908L36.7345 3.57976V6.68272L36.7271 6.67531V7.3204H35.5357V7.31744H34.3369L33.9136 6.2599H31.4453L31.022 7.38807H29.6824C29.1188 7.38807 28.413 7.2473 27.9902 6.82399C27.5669 6.40068 27.356 5.83659 27.356 4.92032C27.356 4.21497 27.4967 3.50962 27.9902 2.94553C28.3424 2.52222 28.9776 2.38145 29.7531 2.38145H30.8817V3.43898H29.7531C29.3298 3.43898 29.1189 3.50912 28.8363 3.72102C28.6254 3.93243 28.4841 4.35525 28.4841 4.8492C28.4841 5.41328 28.5548 5.76596 28.8363 6.048C29.0482 6.2599 29.3303 6.33054 29.6829 6.33054H30.1764L31.798 2.45208H32.5034H33.5609L35.5357 7.17667V6.93562V5.34314V5.20237V2.45208H37.2986L39.343 5.90723V2.45208H40.5423V7.31744Z" fill="white"/>
<path d="M23.4113 4.43723C23.4321 4.415 23.4503 4.3903 23.4661 4.36165C23.5299 4.2604 23.6035 4.07862 23.5639 3.82968C23.5625 3.80695 23.558 3.78571 23.5531 3.76546C23.5516 3.76003 23.5521 3.7546 23.5506 3.74916H23.5501C23.515 3.62815 23.4256 3.55406 23.3362 3.50911C23.195 3.43897 22.9836 3.43896 22.7717 3.43896H21.3609V4.56763H22.7717C22.9831 4.56763 23.195 4.56763 23.3362 4.497C23.3575 4.48613 23.3762 4.4718 23.3945 4.45501V4.456C23.3945 4.456 23.4019 4.4481 23.4113 4.43723Z" fill="#306FC5"/>
<path d="M44.7023 14.3691C44.7023 13.8757 44.5616 13.3817 44.3501 13.029V9.85643H44.3467V9.64453C44.3467 9.64453 41.3909 9.64453 40.9513 9.64453C40.5117 9.64453 39.9777 10.0673 39.9777 10.0673V9.64453H36.734C36.2401 9.64453 35.6058 9.7858 35.3233 10.0673V9.64453H29.5417V9.85643V10.0673C29.1188 9.71516 28.3424 9.64453 27.9902 9.64453H24.1824V9.85643V10.0673C23.8297 9.71516 22.9831 9.64453 22.5597 9.64453H18.3296L17.3422 10.7026L16.4254 9.64453H16.1301H15.6495H10.0787V9.85643V10.4136V16.7667H16.2842L17.3037 15.7467L18.1873 16.7667H18.258H21.8336H21.9957H22.0663H22.1364V16.0614V15.1446H22.4891C22.9821 15.1446 23.6173 15.1446 24.1107 14.9327V16.6956V16.8369H27.2838V16.6956V15.0033H27.4246C27.6365 15.0033 27.6365 15.0033 27.6365 15.2148V16.6956V16.8369H37.2265C37.8617 16.8369 38.4959 16.6956 38.8486 16.4136V16.6956V16.8369H41.8809C42.5151 16.8369 43.1503 16.7662 43.5732 16.4842C44.2222 16.0945 44.6317 15.4049 44.6924 14.583C44.6954 14.5588 44.6989 14.5341 44.7008 14.5099L44.6969 14.5059C44.7004 14.4605 44.7023 14.4151 44.7023 14.3691ZM22.4901 13.9463H21.0794V14.1572V14.5805V15.0038V15.7793H18.7618L17.4128 14.2278L17.4084 14.2328L17.3427 14.1567L15.7912 15.7788H11.278V10.8428H15.8614L17.1135 12.2145L17.3768 12.5015L17.4123 12.4645L18.8932 10.8428H22.6304C23.3555 10.8428 24.168 11.0217 24.4758 11.7596C24.5128 11.9058 24.534 12.0683 24.534 12.2526C24.5345 13.6638 23.5471 13.9463 22.4901 13.9463ZM29.5417 13.8757C29.6824 14.0866 29.7531 14.3691 29.7531 14.7924V15.7793H28.5543V15.1451C28.5543 14.8626 28.5543 14.3691 28.3424 14.1572C28.2016 13.9463 27.9191 13.9463 27.4962 13.9463H26.2273V15.7793H25.0285V10.7727H27.7081C28.2717 10.7727 28.7657 10.7727 29.1188 10.9841C29.471 11.196 29.7531 11.5487 29.7531 12.1128C29.7531 12.8883 29.2596 13.3116 28.9069 13.4528C29.2596 13.5931 29.471 13.7344 29.5417 13.8757ZM34.4075 11.8302H31.6572V12.747H34.3369V13.7344H31.6572V14.7218H34.4075V15.7793H30.4584V10.7727H34.4075V11.8302ZM37.3687 15.7793H35.1119V14.7218H37.3687C37.5796 14.7218 37.7214 14.7218 37.8627 14.5805C37.9333 14.5099 38.0034 14.3691 38.0034 14.2278C38.0034 14.0866 37.9333 13.9463 37.8627 13.8757C37.792 13.805 37.6508 13.7344 37.4394 13.7344C36.3112 13.6638 34.9711 13.7344 34.9711 12.1834C34.9711 11.4781 35.3944 10.7026 36.6634 10.7026H38.9903V11.9014H36.8046C36.5932 11.9014 36.452 11.9014 36.3107 11.972C36.1699 12.0426 36.1699 12.1839 36.1699 12.3247C36.1699 12.5361 36.3107 12.6067 36.4515 12.6769C36.5927 12.7475 36.7335 12.7475 36.8748 12.7475H37.5095C38.1442 12.7475 38.567 12.8888 38.8491 13.1708C39.0605 13.3822 39.2018 13.7349 39.2018 14.2283C39.2022 15.2854 38.5675 15.7793 37.3687 15.7793ZM43.4334 15.2854C43.1518 15.5679 42.6579 15.7793 41.9525 15.7793H39.6967V14.7218H41.9525C42.1639 14.7218 42.3057 14.7218 42.4465 14.5805C42.5166 14.5099 42.5877 14.3691 42.5877 14.2278C42.5877 14.0866 42.5171 13.9463 42.4465 13.8757C42.3758 13.805 42.2351 13.7344 42.0232 13.7344C40.8955 13.6638 39.5549 13.7344 39.5549 12.1834C39.5549 11.5131 39.9382 10.9075 40.8841 10.7278C40.9972 10.7119 41.1168 10.7021 41.2477 10.7021H43.5747V11.9009H42.0232H41.4591H41.3884C41.177 11.9009 41.0358 11.9009 40.895 11.9715C40.8239 12.0421 40.7532 12.1834 40.7532 12.3242C40.7532 12.5356 40.8239 12.6062 41.0358 12.6764C41.1765 12.747 41.3178 12.747 41.4591 12.747H41.5292H42.0938C42.402 12.747 42.6352 12.785 42.8486 12.8601C43.0437 12.9308 43.6907 13.2202 43.835 13.975C43.8473 14.054 43.8567 14.1365 43.8567 14.2278C43.8562 14.6512 43.7149 15.0038 43.4334 15.2854Z" fill="white"/>
<path d="M38.4263 1.39355V2.23968L38.0034 1.39355H34.6896V2.23968L34.2663 1.39355H29.7531C28.9776 1.39355 28.3424 1.53482 27.7788 1.81687V1.39355H24.6057V1.46419V1.81687C24.253 1.53482 23.8302 1.39355 23.2661 1.39355H11.9123L11.1363 3.15645L10.3608 1.39355H7.8224H6.76437V2.23968L6.41169 1.39355H6.34106H3.30922L1.89851 4.70793L0.276889 8.30434L0.247252 8.37498H0.276889H3.8733H3.91825L3.94394 8.30434L4.36725 7.24681H5.28401L5.70732 8.37498H9.7967V8.30434V7.52885L10.1494 8.37498H12.1943L12.5465 7.52885V8.30434V8.37498H14.1686H22.2782H22.3488V6.54145H22.4901C22.6309 6.54145 22.6309 6.54145 22.6309 6.75286V8.30434H27.7081V7.88103C28.1315 8.09293 28.7657 8.30434 29.6118 8.30434H31.7274L32.1507 7.17617H33.1376L33.5609 8.30434H37.6508V7.59948V7.24681L38.2855 8.30434H38.4263H38.4969H41.5999V1.39355H38.4263ZM13.8159 7.31744H13.3931V6.89462V3.43898L13.3225 3.6005V3.59853L11.6821 7.31744H11.6302H11.2528H10.6428L8.95057 3.43898V7.31744H6.55296L6.05951 6.2599H3.6619L3.16795 7.31744H1.92815L4.01408 2.38095H5.77697L7.75127 7.10554V2.38095H8.17409H9.61937L9.65247 2.45159H9.65493L10.5445 4.38785L11.1832 5.83857L11.2059 5.76546L12.6161 2.38095H14.5203V7.31695L13.8159 7.31744ZM19.3871 3.43898H16.6369V4.35574H19.3165V5.34314H16.6369V6.33054H19.3871V7.38807H15.438V2.38095H19.3871V3.43898ZM24.417 5.25719C24.419 5.25868 24.4209 5.26016 24.4234 5.26164C24.4501 5.2898 24.4728 5.31795 24.4926 5.34512C24.6274 5.52195 24.7371 5.78572 24.7425 6.17198C24.743 6.1789 24.743 6.18532 24.7435 6.19174C24.7435 6.19569 24.744 6.19915 24.744 6.2031C24.744 6.20557 24.744 6.20705 24.744 6.20903C24.7455 6.24805 24.7464 6.28756 24.7464 6.33054V7.31793H23.6889V6.75335C23.6889 6.47131 23.6889 6.048 23.477 5.76596C23.4103 5.69928 23.3431 5.65531 23.2695 5.6242C23.1638 5.55554 22.9638 5.55455 22.6314 5.55455H21.3614V7.31744H20.1631V2.38095H22.8428C23.477 2.38095 23.9003 2.38095 24.253 2.59236C24.5988 2.79982 24.8072 3.1441 24.8151 3.68892C24.7988 4.43922 24.3172 4.85117 23.971 4.98997C23.9705 4.99046 24.2061 5.03739 24.417 5.25719ZM26.7914 7.31744H25.5926V2.38095H26.7914V7.31744ZM39.3425 2.45208H40.5418V7.31744H38.9903L36.734 3.57976V6.68272L36.7266 6.67531V7.3204H35.5352V7.31744H34.3364L33.9131 6.2599H31.4448L31.0215 7.38807H29.6819C29.1184 7.38807 28.4125 7.2473 27.9897 6.82399C27.5664 6.40068 27.3555 5.83659 27.3555 4.92032C27.3555 4.21497 27.4962 3.50962 27.9897 2.94553C28.3419 2.52222 28.9771 2.38145 29.7526 2.38145H30.8812V3.43898H29.7526C29.3293 3.43898 29.1184 3.50912 28.8358 3.72102C28.6249 3.93243 28.4836 4.35525 28.4836 4.8492C28.4836 5.41328 28.5543 5.76596 28.8358 6.048C29.0477 6.2599 29.3298 6.33054 29.6824 6.33054H30.1759L31.7975 2.45208H32.5029H33.5604L35.5352 7.17667V6.93562V5.34314V5.20237V2.45208H37.2981L39.3425 5.90723V2.45208Z" fill="#306FC5"/>
<path d="M44.3501 13.0295V9.85643H44.3467V9.64453C44.3467 9.64453 41.3909 9.64453 40.9513 9.64453C40.5117 9.64453 39.9777 10.0673 39.9777 10.0673V9.64453H36.734C36.2401 9.64453 35.6058 9.7858 35.3233 10.0673V9.64453H29.5417V9.85643V10.0673C29.1188 9.71516 28.3424 9.64453 27.9902 9.64453H24.1824V9.85643V10.0673C23.8297 9.71516 22.9831 9.64453 22.5597 9.64453H18.3296L17.3422 10.7026L16.4254 9.64453H16.1301H15.6495H10.0787V9.85643V10.4136V16.7667H16.2842L17.3037 15.7467L18.1873 16.7667H18.258H21.8336H21.9957H22.0663H22.1364V16.0614V15.1446H22.4891C22.9821 15.1446 23.6173 15.1446 24.1107 14.9327V16.6956V16.8369H27.2838V16.6956V15.0033H27.4246C27.6365 15.0033 27.6365 15.0033 27.6365 15.2148V16.6956V16.8369H37.2265C37.8617 16.8369 38.4959 16.6956 38.8486 16.4136V16.6956V16.8369H41.8809C42.5151 16.8369 43.1503 16.7662 43.5732 16.4842C44.2222 16.0945 44.6317 15.4049 44.6924 14.583C44.6954 14.5588 44.6989 14.5341 44.7008 14.5099L44.6969 14.5059C44.7004 14.4605 44.7023 14.4151 44.7023 14.3691C44.7023 13.8757 44.5616 13.3817 44.3501 13.0295ZM22.4901 13.9463H21.0794V14.1572V14.5805V15.0038V15.7793H18.7618L17.4128 14.2278L17.4084 14.2328L17.3427 14.1567L15.7912 15.7788H11.278V10.8428H15.8614L17.1135 12.2145L17.3768 12.5015L17.4123 12.4645L18.8932 10.8428H22.6304C23.3555 10.8428 24.168 11.0217 24.4758 11.7596C24.5128 11.9058 24.534 12.0683 24.534 12.2526C24.5345 13.6638 23.5471 13.9463 22.4901 13.9463ZM29.5417 13.8757C29.6824 14.0866 29.7531 14.3691 29.7531 14.7924V15.7793H28.5543V15.1451C28.5543 14.8626 28.5543 14.3691 28.3424 14.1572C28.2016 13.9463 27.9191 13.9463 27.4962 13.9463H26.2273V15.7793H25.0285V10.7727H27.7081C28.2717 10.7727 28.7657 10.7727 29.1188 10.9841C29.471 11.196 29.7531 11.5487 29.7531 12.1128C29.7531 12.8883 29.2596 13.3116 28.9069 13.4528C29.2596 13.5931 29.471 13.7344 29.5417 13.8757ZM34.4075 11.8302H31.6572V12.747H34.3369V13.7344H31.6572V14.7218H34.4075V15.7793H30.4584V10.7727H34.4075V11.8302ZM37.3687 15.7793H35.1119V14.7218H37.3687C37.5796 14.7218 37.7214 14.7218 37.8627 14.5805C37.9333 14.5099 38.0034 14.3691 38.0034 14.2278C38.0034 14.0866 37.9333 13.9463 37.8627 13.8757C37.792 13.805 37.6508 13.7344 37.4394 13.7344C36.3112 13.6638 34.9711 13.7344 34.9711 12.1834C34.9711 11.4781 35.3944 10.7026 36.6634 10.7026H38.9903V11.9014H36.8046C36.5932 11.9014 36.452 11.9014 36.3107 11.972C36.1699 12.0426 36.1699 12.1839 36.1699 12.3247C36.1699 12.5361 36.3107 12.6067 36.4515 12.6769C36.5927 12.7475 36.7335 12.7475 36.8748 12.7475H37.5095C38.1442 12.7475 38.567 12.8888 38.8491 13.1708C39.0605 13.3822 39.2018 13.7349 39.2018 14.2283C39.2022 15.2854 38.5675 15.7793 37.3687 15.7793ZM43.4334 15.2854C43.1518 15.5679 42.6579 15.7793 41.9525 15.7793H39.6967V14.7218H41.9525C42.1639 14.7218 42.3057 14.7218 42.4465 14.5805C42.5166 14.5099 42.5877 14.3691 42.5877 14.2278C42.5877 14.0866 42.5171 13.9463 42.4465 13.8757C42.3758 13.805 42.2351 13.7344 42.0232 13.7344C40.8955 13.6638 39.5549 13.7344 39.5549 12.1834C39.5549 11.5131 39.9382 10.9075 40.8841 10.7278C40.9972 10.7119 41.1168 10.7021 41.2477 10.7021H43.5751V11.9009H42.0237H41.4596H41.3889C41.1775 11.9009 41.0363 11.9009 40.8955 11.9715C40.8244 12.0421 40.7537 12.1834 40.7537 12.3242C40.7537 12.5356 40.8244 12.6062 41.0363 12.6764C41.177 12.747 41.3183 12.747 41.4596 12.747H41.5297H42.0943C42.4025 12.747 42.6357 12.785 42.849 12.8601C43.0442 12.9308 43.6907 13.2202 43.8355 13.975C43.8478 14.054 43.8572 14.1365 43.8572 14.2278C43.8562 14.6512 43.7149 15.0038 43.4334 15.2854Z" fill="#306FC5"/>
</svg>
